<svg id="Layer_1" data-name="Layer 1" xmlns="http://www.w3.org/2000/svg" xmlns:xlink="http://www.w3.org/1999/xlink" viewBox="0 0 1655.03 412.85"><defs><style>.cls-1{fill:url(#linear-gradient);}.cls-2{fill:#fff;}</style><linearGradient id="linear-gradient" y1="206.42" x2="409.57" y2="206.42" gradientUnits="userSpaceOnUse"><stop offset="0" stop-color="#e28933"/><stop offset="1" stop-color="#bd3b32"/></linearGradient></defs><path class="cls-1" d="M313.58,131.34V116.83a59.67,59.67,0,0,1,48.1,82.31l-12.61-7.28a45.25,45.25,0,0,0-35.49-60.52Zm-254,61a45.23,45.23,0,0,1,35.26-61V116.83A59.66,59.66,0,0,0,47,199.64ZM204.22,398.46A45.16,45.16,0,0,1,169.1,381.7L156.49,389a59.64,59.64,0,0,0,95.79-.46l-12.59-7.26A45.2,45.2,0,0,1,204.22,398.46Zm205.35-154.4V353.72l-95,54.83-95-54.83V310.65a45.08,45.08,0,0,0-29.7-.38v43.45L95,408.55,0,353.72V244.06l54.63-31.54-.37-.45,12.61-7.28c.12.15.25.29.38.44l27.72-16,36.43,21A45.29,45.29,0,0,0,146,185.72l-36.77-21.23V131.43h0V116.9h0V54.83L204.22,0l95,54.83V164.49L262.45,185.7a45.34,45.34,0,0,0,15.06,25l37.09-21.42,27,15.57c.12-.15.26-.29.38-.44l12.6,7.27c-.12.16-.25.3-.36.46ZM292,218.88a45.05,45.05,0,0,0,38-4.11l-15.45-8.92Zm-7.23-63.36V136.47A45.36,45.36,0,0,0,262,168.66Zm-161.16-35a59.64,59.64,0,0,1,37.82,55.49c0,.43,0,.85,0,1.27L204.22,202l42.83-24.73c0-.42,0-.83,0-1.25a59.64,59.64,0,0,1,37.79-55.47V62.47L204.22,16,123.64,62.47Zm0,35,22.82,13.17a45.36,45.36,0,0,0-22.82-32.24ZM95,205.85l-16,9.24a45.15,45.15,0,0,0,38.18,3.56Zm0,186.08,50.39-29.09a59.61,59.61,0,0,1,30.18-61.95V252.37l-43.3-25a59.59,59.59,0,0,1-67.1-4.3l-50.75,29.3v93Zm80.57-73.71a45.18,45.18,0,0,0-16.58,35c0,.59,0,1.18,0,1.76l16.54-9.55Zm44.09-22.65V244.06l44.81-25.87a59.52,59.52,0,0,1-14.92-25l-45.3,26.15L159,193.18a59.51,59.51,0,0,1-14.53,24.61l45.51,26.27v51.23a59.67,59.67,0,0,1,29.7.28ZM234,345.41l15.43,8.91c0-.37,0-.74,0-1.12a45.15,45.15,0,0,0-15.46-34Zm161.16-93L343.8,222.71a59.58,59.58,0,0,1-67,5L234,252.37v49.17a59.64,59.64,0,0,1,29.16,60.71l51.42,29.68,80.58-46.52Z"/><path class="cls-2" d="M706.38,217.7a15.52,15.52,0,0,1-1.15,6,14.41,14.41,0,0,1-3.25,4.8,15.44,15.44,0,0,1-10.76,4.34h-67.8A93.44,93.44,0,0,1,604,230.78a86.31,86.31,0,0,1-19-6.43,81.37,81.37,0,0,1-17.3-11,71.8,71.8,0,0,1-14.17-15.91,77.58,77.58,0,0,1-9.55-21,94.23,94.23,0,0,1-3.47-26.45v-83h30.09v83q0,12.74,3.53,21.53a47.54,47.54,0,0,0,9,14.69A43.31,43.31,0,0,0,595,195.37a63.51,63.51,0,0,0,12.33,5,58.32,58.32,0,0,0,10.29,2q4.45.4,5.85.4H676.3V66.93h30.08Z"/><path class="cls-2" d="M792.93,232.86H779.51a48.21,48.21,0,0,1-13.83-2.2A40.81,40.81,0,0,1,752,223.43a39.62,39.62,0,0,1-10.53-13.08q-4.17-8-4.16-19.72V54.9h30.08V190.63a11.65,11.65,0,0,0,3.47,8.85,12.15,12.15,0,0,0,8.68,3.29h13.42Z"/><path class="cls-2" d="M921.49,137.86H869v95H838.52v-95H799.41V107.78h39.11V66.93H869v40.85h52.54Z"/><path class="cls-2" d="M971.82,82.09H941.74V54.9h30.08Zm0,150.77H941.74V107.78h30.08Z"/><path class="cls-2" d="M1169.57,196.41a41.36,41.36,0,0,1-1.91,11.92,34.52,34.52,0,0,1-17.53,20.88q-6.95,3.64-17,3.65h-114.2a15.52,15.52,0,0,1-6-1.16,14.47,14.47,0,0,1-8-8,15.34,15.34,0,0,1-1.16-6V82.09a15,15,0,0,1,1.16-5.9,15.39,15.39,0,0,1,3.18-4.86,14.23,14.23,0,0,1,4.8-3.24,15.52,15.52,0,0,1,6-1.16h100.66a40.49,40.49,0,0,1,11.92,2,36.36,36.36,0,0,1,11.86,6.3,34.63,34.63,0,0,1,9.14,11.29q3.64,6.93,3.65,17v5.66a62.17,62.17,0,0,1-2.66,17.19,56.71,56.71,0,0,1-8.57,17.41,52.91,52.91,0,0,1,9.55,7.52,48.44,48.44,0,0,1,7.81,10.19,53.62,53.62,0,0,1,5.32,13.07,61.73,61.73,0,0,1,2,16.09Zm-30.08-5.78a28.68,28.68,0,0,0-1.85-10.59,23.41,23.41,0,0,0-5.21-8,22.51,22.51,0,0,0-8.1-5.15,29.85,29.85,0,0,0-10.65-1.8h-67.8V134.74h54.27a29.8,29.8,0,0,0,10.64-1.8A22.19,22.19,0,0,0,1124,119.75a29.54,29.54,0,0,0,1.79-10.59V103.5q0-6.48-6.25-6.48h-85.74V202.77h99.28a19.21,19.21,0,0,0,2-.11,4.88,4.88,0,0,0,2.08-.69,4.76,4.76,0,0,0,1.62-2,8.71,8.71,0,0,0,.7-3.82Z"/><path class="cls-2" d="M1326.94,149.2a46.68,46.68,0,0,1-2.2,13.48,40.28,40.28,0,0,1-7.12,13.42,39.73,39.73,0,0,1-12.84,10.36q-7.93,4.17-19.27,4.17h-54.27V162h54.27q6.13,0,9.49-3.76a13.45,13.45,0,0,0,3.36-9.31q0-5.9-3.77-9.26a13.17,13.17,0,0,0-9.08-3.35h-54.27q-6.13,0-9.49,3.76a13.49,13.49,0,0,0-3.35,9.31v42q0,6,3.76,9.38a13.47,13.47,0,0,0,9.32,3.35h54v28.7h-54.27a46.39,46.39,0,0,1-13.48-2.2,40.19,40.19,0,0,1-13.42-7.12A39.52,39.52,0,0,1,1194,210.7q-4.15-7.92-4.16-19.27V149.2a46.39,46.39,0,0,1,2.2-13.48,40.35,40.35,0,0,1,7.11-13.42A39.66,39.66,0,0,1,1212,111.94q7.92-4.17,19.26-4.16h54.27A46.34,46.34,0,0,1,1299,110a39.42,39.42,0,0,1,23.78,20Q1326.94,137.87,1326.94,149.2Z"/><path class="cls-2" d="M1460.93,137.86H1408.4v95H1378v-95h-39.12V107.78H1378V66.93h30.43v40.85h52.53Z"/><path class="cls-2" d="M1601.63,190.63a46,46,0,0,1-2,13.94,40.74,40.74,0,0,1-5.21,10.87,35.41,35.41,0,0,1-7.52,8,43.9,43.9,0,0,1-9,5.38,46.24,46.24,0,0,1-9.49,3.07,45.74,45.74,0,0,1-9.08,1h-81.46V202.77h81.23q6.13,0,9.25-3.12t3.13-9q-.58-12-12.15-12h-46.63q-10,0-16.9-3.47a34.64,34.64,0,0,1-11.28-8.68,33,33,0,0,1-6.24-11.22,37,37,0,0,1-1.92-11.23q0-10.06,3.59-17a33.73,33.73,0,0,1,9-11.16,35.21,35.21,0,0,1,11.8-6.19,41.31,41.31,0,0,1,11.92-1.91h73.94v30.08H1513a10.24,10.24,0,0,0-3.65.52,4.3,4.3,0,0,0-2,1.39,3.76,3.76,0,0,0-.75,1.85,15.8,15.8,0,0,0-.12,1.91,6.84,6.84,0,0,0,.69,2.89,3.65,3.65,0,0,0,1.45,1.51,4.64,4.64,0,0,0,2,.52c.73,0,1.44.06,2.14.06h46.63q11.56,0,19.67,4.16a39.12,39.12,0,0,1,13.07,10.47,41.68,41.68,0,0,1,7.24,13.72A47.49,47.49,0,0,1,1601.63,190.63Z"/><path class="cls-2" d="M597.69,350a16,16,0,0,1-.74,4.64,13.54,13.54,0,0,1-2.44,4.6,13.38,13.38,0,0,1-4.39,3.54,14.12,14.12,0,0,1-6.63,1.43H539a5.87,5.87,0,0,1-2.35-.46,5.71,5.71,0,0,1-1.87-1.24,5.61,5.61,0,0,1-1.24-1.87,6,6,0,0,1-.45-2.34V305.46a6,6,0,0,1,1.69-4.19,5.64,5.64,0,0,1,1.87-1.27,6,6,0,0,1,2.35-.45h39.24a15.79,15.79,0,0,1,4.64.77,14.1,14.1,0,0,1,4.63,2.46,13.47,13.47,0,0,1,3.56,4.4,14.07,14.07,0,0,1,1.42,6.63V316a24.18,24.18,0,0,1-1,6.69,22.25,22.25,0,0,1-3.34,6.79,21,21,0,0,1,3.72,2.94,18.57,18.57,0,0,1,3,4,20.88,20.88,0,0,1,2.08,5.1,24.16,24.16,0,0,1,.76,6.27ZM586,347.77a11.43,11.43,0,0,0-.72-4.13,9.3,9.3,0,0,0-2-3.13,9,9,0,0,0-3.16-2,11.84,11.84,0,0,0-4.15-.7H549.48V326h21.15a11.8,11.8,0,0,0,4.15-.7,9,9,0,0,0,3.16-2,8.75,8.75,0,0,0,2-3.14,11.34,11.34,0,0,0,.7-4.12v-2.21c0-1.69-.81-2.53-2.43-2.53H544.78v41.23h38.71c.21,0,.46,0,.76-.05a1.85,1.85,0,0,0,.81-.27,1.74,1.74,0,0,0,.64-.77,3.34,3.34,0,0,0,.27-1.48Z"/><path class="cls-2" d="M659,331.62a18.19,18.19,0,0,1-.86,5.26,15.35,15.35,0,0,1-7.78,9.27,16,16,0,0,1-7.51,1.62H621.74V336.63h21.15a4.7,4.7,0,0,0,3.7-1.47,5.24,5.24,0,0,0,1.31-3.63,4.6,4.6,0,0,0-1.47-3.61,5.14,5.14,0,0,0-3.54-1.3H621.74a4.71,4.71,0,0,0-3.7,1.46,5.23,5.23,0,0,0-1.31,3.63v16.38a4.66,4.66,0,0,0,1.46,3.65,5.27,5.27,0,0,0,3.63,1.31h21.07v11.19H621.74a18.19,18.19,0,0,1-5.26-.86,15.66,15.66,0,0,1-5.23-2.78,15.31,15.31,0,0,1-4-5,16,16,0,0,1-1.62-7.51V331.62a18.15,18.15,0,0,1,.85-5.25,15.44,15.44,0,0,1,7.78-9.27,16,16,0,0,1,7.52-1.62h21.15a18.21,18.21,0,0,1,5.26.85,15.75,15.75,0,0,1,5.23,2.78,15.39,15.39,0,0,1,4,5A15.9,15.9,0,0,1,659,331.62Z"/><path class="cls-2" d="M711.27,327.2H690.79v37H678.93v-37H663.69V315.48h15.24V299.55h11.86v15.93h20.48Z"/><path class="cls-2" d="M763.32,327.2H742.85v37H731v-37H715.74V315.48H731V299.55h11.87v15.93h20.47Z"/><path class="cls-2" d="M783,305.46H771.22v-10.6H783Zm0,58.78H771.22V315.48H783Z"/><path class="cls-2" d="M848.21,364.24H836.49V337.17a10.45,10.45,0,0,0-.79-4.13,9.75,9.75,0,0,0-2.15-3.13,9.36,9.36,0,0,0-3.18-2,11,11,0,0,0-3.94-.7H805.9v37H794.17V321.29a5.72,5.72,0,0,1,.46-2.27,5.53,5.53,0,0,1,1.26-1.85,5.91,5.91,0,0,1,1.89-1.24,6,6,0,0,1,2.3-.45h26.44a23.71,23.71,0,0,1,4.67.49,22.74,22.74,0,0,1,4.87,1.6,23.89,23.89,0,0,1,4.6,2.8,19,19,0,0,1,3.88,4.1,20.41,20.41,0,0,1,2.68,5.57,23.86,23.86,0,0,1,1,7.13Z"/><path class="cls-2" d="M911.54,368.93a18,18,0,0,1-.76,5.43,15.88,15.88,0,0,1-2,4.24,13.64,13.64,0,0,1-2.94,3.11,16.77,16.77,0,0,1-3.49,2.1,18.35,18.35,0,0,1-3.7,1.2,18.11,18.11,0,0,1-3.54.38H873.93V373.66h21.15a4.7,4.7,0,0,0,3.56-1.22,4.87,4.87,0,0,0,1.18-3.51v-37a4.19,4.19,0,0,0-4.74-4.69H873.93a4.52,4.52,0,0,0-3.43,1.33,4.67,4.67,0,0,0-1.27,3.36v15.88a4.78,4.78,0,0,0,1.22,3.52,4.83,4.83,0,0,0,3.56,1.22h21.07v11.73H873.93a17,17,0,0,1-3.52-.39,17.73,17.73,0,0,1-3.68-1.19,16.77,16.77,0,0,1-3.49-2.1,13.83,13.83,0,0,1-2.94-3.11,15.88,15.88,0,0,1-2-4.24,18,18,0,0,1-.76-5.44V331.89a17,17,0,0,1,.38-3.51,17.73,17.73,0,0,1,1.19-3.68,18,18,0,0,1,2.1-3.5,14,14,0,0,1,3.11-2.93,16,16,0,0,1,4.22-2,17.74,17.74,0,0,1,5.42-.76h21.15a17.37,17.37,0,0,1,3.54.38,17.7,17.7,0,0,1,3.7,1.19,17.21,17.21,0,0,1,3.49,2.1,14.06,14.06,0,0,1,2.94,3.11,16,16,0,0,1,2,4.22,17.77,17.77,0,0,1,.76,5.41Z"/><path class="cls-2" d="M1005.36,347.77a18,18,0,0,1-.76,5.44,16.18,16.18,0,0,1-2,4.24,14.06,14.06,0,0,1-2.94,3.11,16.77,16.77,0,0,1-3.49,2.1,17.7,17.7,0,0,1-3.7,1.19,17.42,17.42,0,0,1-3.54.39H967.75a18.91,18.91,0,0,1-5.33-.86,15.63,15.63,0,0,1-5.34-2.82,15.87,15.87,0,0,1-4.11-5.1,16.35,16.35,0,0,1-1.64-7.69V331.89a16.25,16.25,0,0,1,1.64-7.64,15.87,15.87,0,0,1,4.11-5.1,15.63,15.63,0,0,1,5.34-2.82,18.87,18.87,0,0,1,5.33-.85H988.9a16.65,16.65,0,0,1,7.67,1.62,15.19,15.19,0,0,1,5.09,4.08,15.93,15.93,0,0,1,2.82,5.35,18.32,18.32,0,0,1,.88,5.36ZM993.64,332a4.79,4.79,0,0,0-1.22-3.6,4.85,4.85,0,0,0-3.52-1.18H967.83a4.87,4.87,0,0,0-3.56,1.2,4.69,4.69,0,0,0-1.22,3.49v15.88a4.78,4.78,0,0,0,1.22,3.52,4.83,4.83,0,0,0,3.56,1.22H988.9a4.74,4.74,0,0,0,3.56-1.22,4.89,4.89,0,0,0,1.18-3.52Z"/><path class="cls-2" d="M1069.37,364.24h-11.73V337.17a10.28,10.28,0,0,0-.79-4.13,9.57,9.57,0,0,0-2.14-3.13,9.36,9.36,0,0,0-3.18-2,11.08,11.08,0,0,0-4-.7h-20.52v37h-11.73V321.29a5.71,5.71,0,0,1,.45-2.27,5.53,5.53,0,0,1,1.26-1.85,6.06,6.06,0,0,1,1.9-1.24,5.93,5.93,0,0,1,2.3-.45h26.43a23.63,23.63,0,0,1,4.67.49,22.56,22.56,0,0,1,4.87,1.6,23.59,23.59,0,0,1,4.6,2.8,19,19,0,0,1,3.88,4.1,20.43,20.43,0,0,1,2.69,5.57,23.86,23.86,0,0,1,1,7.13Z"/><path class="cls-2" d="M1175.55,350a16.38,16.38,0,0,1-.74,4.64,13.47,13.47,0,0,1-6.84,8.14,14.07,14.07,0,0,1-6.63,1.43h-44.52a5.93,5.93,0,0,1-2.35-.46,5.65,5.65,0,0,1-3.11-3.11,6,6,0,0,1-.45-2.34V305.46a5.93,5.93,0,0,1,.45-2.3,6.08,6.08,0,0,1,1.24-1.89,5.64,5.64,0,0,1,1.87-1.27,6.11,6.11,0,0,1,2.35-.45h39.24a15.8,15.8,0,0,1,4.65.77,14.15,14.15,0,0,1,4.62,2.46,13.5,13.5,0,0,1,3.57,4.4,14.19,14.19,0,0,1,1.42,6.63V316a24.22,24.22,0,0,1-1,6.69,21.8,21.8,0,0,1-3.34,6.79,20.64,20.64,0,0,1,3.72,2.94,18.61,18.61,0,0,1,3,4,21.26,21.26,0,0,1,2.07,5.1,24.15,24.15,0,0,1,.77,6.27Zm-11.73-2.26a11.22,11.22,0,0,0-.72-4.13,9.15,9.15,0,0,0-2-3.13,8.82,8.82,0,0,0-3.16-2,11.76,11.76,0,0,0-4.15-.7h-26.43V326h21.16a11.84,11.84,0,0,0,4.15-.7,8.86,8.86,0,0,0,3.15-2,8.77,8.77,0,0,0,2-3.14,11.34,11.34,0,0,0,.7-4.12v-2.21c0-1.69-.81-2.53-2.44-2.53h-33.42v41.23h38.7c.21,0,.47,0,.77-.05a1.85,1.85,0,0,0,.81-.27,1.79,1.79,0,0,0,.63-.77,3.34,3.34,0,0,0,.27-1.48Z"/><path class="cls-2" d="M1205.86,364.24h-5.23a18.87,18.87,0,0,1-5.39-.86,16,16,0,0,1-5.35-2.82,15.46,15.46,0,0,1-4.1-5.1,16.47,16.47,0,0,1-1.63-7.69V294.86h11.73v52.91a4.49,4.49,0,0,0,1.36,3.45,4.7,4.7,0,0,0,3.38,1.29h5.23Z"/><path class="cls-2" d="M1266.44,347.77a18,18,0,0,1-.77,5.44,15.88,15.88,0,0,1-2,4.24,14,14,0,0,1-2.93,3.11,16.84,16.84,0,0,1-3.5,2.1,17.62,17.62,0,0,1-3.69,1.19,17.43,17.43,0,0,1-3.55.39h-21.15a18.79,18.79,0,0,1-5.32-.86,15.52,15.52,0,0,1-9.45-7.92,16.34,16.34,0,0,1-1.65-7.69V331.89a16.24,16.24,0,0,1,1.65-7.64,15.52,15.52,0,0,1,9.45-7.92,18.76,18.76,0,0,1,5.32-.85H1250a16.62,16.62,0,0,1,7.67,1.62,15.14,15.14,0,0,1,5.1,4.08,16.3,16.3,0,0,1,2.82,5.35,18.66,18.66,0,0,1,.88,5.36ZM1254.71,332a4.23,4.23,0,0,0-4.74-4.78h-21.06a4.87,4.87,0,0,0-3.56,1.2,4.65,4.65,0,0,0-1.22,3.49v15.88a4.74,4.74,0,0,0,1.22,3.52,4.83,4.83,0,0,0,3.56,1.22H1250a4.75,4.75,0,0,0,3.57-1.22,4.89,4.89,0,0,0,1.17-3.52Z"/><path class="cls-2" d="M1323.63,364.24h-31.8a18.85,18.85,0,0,1-5.32-.86,15.54,15.54,0,0,1-5.34-2.82,15.87,15.87,0,0,1-4.11-5.1,16.34,16.34,0,0,1-1.65-7.69V331.89a17,17,0,0,1,.39-3.51,17.73,17.73,0,0,1,1.19-3.68,17.1,17.1,0,0,1,2.1-3.5,13.81,13.81,0,0,1,3.11-2.93,16,16,0,0,1,4.22-2,17.72,17.72,0,0,1,5.41-.76h31.8V327.2h-31.8a4.74,4.74,0,0,0-3.49,1.18,4.83,4.83,0,0,0-1.2,3.6v15.79a4.78,4.78,0,0,0,1.22,3.52,4.83,4.83,0,0,0,3.56,1.22h31.71Z"/><path class="cls-2" d="M1345.24,364.24h-11.73V294.86h11.73Zm45.38,0H1373.7l-23.63-22.83a5.42,5.42,0,0,1-1.85-4.51,6.07,6.07,0,0,1,.65-2.37,5.5,5.5,0,0,1,1.56-1.87l21.42-17.28h18.77L1363,337.62Z"/><path class="cls-2" d="M1442.85,364.24h-31.8a18.79,18.79,0,0,1-5.32-.86,15.58,15.58,0,0,1-5.35-2.82,15.87,15.87,0,0,1-4.11-5.1,16.47,16.47,0,0,1-1.64-7.69V331.89a17.66,17.66,0,0,1,.38-3.51,18.38,18.38,0,0,1,1.2-3.68,17.1,17.1,0,0,1,2.1-3.5,13.6,13.6,0,0,1,3.11-2.93,15.89,15.89,0,0,1,4.22-2,17.68,17.68,0,0,1,5.41-.76h31.8V327.2h-31.8a4.77,4.77,0,0,0-3.5,1.18,4.82,4.82,0,0,0-1.19,3.6v15.79a4.78,4.78,0,0,0,1.21,3.52,4.86,4.86,0,0,0,3.57,1.22h31.71Z"/><path class="cls-2" d="M1464.45,364.24h-11.72V294.86h11.72Zm42.31,0H1495V331.89a4.8,4.8,0,0,0-1.18-3.49,4.7,4.7,0,0,0-3.52-1.2h-21.15V315.48h21.15a17,17,0,0,1,3.52.38,17.92,17.92,0,0,1,3.68,1.19,17.21,17.21,0,0,1,3.49,2.1,14.06,14.06,0,0,1,2.94,3.11,16,16,0,0,1,2,4.22,17.77,17.77,0,0,1,.76,5.41Z"/><path class="cls-2" d="M1567.84,348.09a18.18,18.18,0,0,1-.86,5.25,15.71,15.71,0,0,1-2.77,5.23,15.46,15.46,0,0,1-5,4,16,16,0,0,1-7.51,1.63h-21.16a18.18,18.18,0,0,1-5.25-.86,15.66,15.66,0,0,1-5.23-2.78,15.31,15.31,0,0,1-4-5,16,16,0,0,1-1.62-7.51,18.34,18.34,0,0,1,.85-5.28,15.56,15.56,0,0,1,2.78-5.25,15.31,15.31,0,0,1,5-4,16,16,0,0,1,7.51-1.63h21.16v11.19h-21.16a4.71,4.71,0,0,0-3.7,1.47,5.23,5.23,0,0,0-1.3,3.63,4.43,4.43,0,0,0,1.51,3.58,5.34,5.34,0,0,0,3.58,1.29h21.07a4.76,4.76,0,0,0,3.7-1.44,5.21,5.21,0,0,0,1.31-3.61V331.62a4.8,4.8,0,0,0-1.43-3.65,5,5,0,0,0-3.58-1.35h-25.76V315.48h25.76a18.15,18.15,0,0,1,5.25.85,15.7,15.7,0,0,1,5.24,2.78,15.52,15.52,0,0,1,4,5,16,16,0,0,1,1.63,7.51Z"/><path class="cls-2" d="M1589.76,305.46H1578v-10.6h11.73Zm0,58.78H1578V315.48h11.73Z"/><path class="cls-2" d="M1655,364.24H1643.3V337.17a10.45,10.45,0,0,0-.79-4.13,9.73,9.73,0,0,0-2.14-3.13,9.46,9.46,0,0,0-3.18-2,11.12,11.12,0,0,0-4-.7h-20.52v37H1601V321.29a5.71,5.71,0,0,1,.45-2.27,5.53,5.53,0,0,1,1.26-1.85,6,6,0,0,1,4.2-1.69h26.43a23.71,23.71,0,0,1,4.67.49,22.56,22.56,0,0,1,4.87,1.6,23.59,23.59,0,0,1,4.6,2.8,19,19,0,0,1,3.88,4.1A20.13,20.13,0,0,1,1654,330a23.53,23.53,0,0,1,1,7.13Z"/></svg>